<?xml version="1.0" encoding="UTF-8" standalone="no"?><!DOCTYPE svg PUBLIC "-//W3C//DTD SVG 1.1//EN" "http://www.w3.org/Graphics/SVG/1.1/DTD/svg11.dtd"><svg width="80" height="120" viewBox="0 0 40 60" version="1.1" xmlns="http://www.w3.org/2000/svg" xmlns:xlink="http://www.w3.org/1999/xlink" xml:space="preserve" xmlns:serif="http://www.serif.com/" style="fill-rule:evenodd;clip-rule:evenodd;stroke-linejoin:round;stroke-miterlimit:2;"><rect id="Artboard2" x="0" y="0" width="40" height="60" style="fill:none;"/><clipPath id="_clip1"><rect x="0" y="0" width="40" height="60"/></clipPath><g clip-path="url(#_clip1)"><path d="M20,0c11.037,0 19.999,8.962 19.999,20c0.1,14.105 -7.468,27.64 -19.999,39.999c-0,0 -0,0.001 -0,0.001l-0,-0l-0.001,0l0,-0.001c-12.531,-12.359 -20.099,-25.894 -19.999,-39.999c0,-11.038 8.962,-20 19.999,-20l0,-0l0.001,-0l0,0Zm-0,9.705c-5.682,-0 -10.295,4.613 -10.295,10.295c-0,5.682 4.613,10.295 10.295,10.295c5.681,0 10.294,-4.613 10.294,-10.295c0,-5.682 -4.613,-10.295 -10.294,-10.295Z" style="fill:#5995ed;"/><path d="M19.111,0.02c0.294,-0.013 0.59,-0.02 0.888,-0.02l0.001,0c11.037,0 19.999,8.962 19.999,20c0.1,14.105 -7.468,27.64 -19.999,39.999l-0.001,0.001l0,-0.001c-0.238,-0.234 -0.474,-0.47 -0.707,-0.704l0.039,-0.04l-0.041,0.039c-12.107,-12.169 -19.388,-25.457 -19.29,-39.294c0,-10.712 8.439,-19.468 19.024,-19.976l0.97,0.97c-0.057,-0.07 -0.635,-0.779 -0.883,-0.974Zm0.888,0.98l0.001,0c10.485,0 18.999,8.514 18.999,19c0,0.002 0,0.005 0,0.007c0.097,13.596 -7.105,26.628 -18.999,38.582c-11.895,-11.954 -19.097,-24.986 -19,-38.582c-0,-0.002 -0,-0.005 -0,-0.007c-0,-10.486 8.514,-19 18.999,-19Zm0,7.705c-6.233,-0 -11.294,5.061 -11.294,11.295c-0,6.234 5.061,11.295 11.294,11.295c6.234,0 11.295,-5.061 11.295,-11.295c0,-6.234 -5.061,-11.295 -11.294,-11.295l-0.001,-0Zm0.001,1c-5.682,-0 -10.295,4.613 -10.295,10.295c-0,5.682 4.613,10.295 10.295,10.295c5.681,0 10.294,-4.613 10.294,-10.295c0,-5.682 -4.613,-10.295 -10.294,-10.295Zm0.003,-8.708l-0.003,0.002l-0,0.001c-0,0 0.003,-0.003 0.003,-0.003Z" style="fill:#fff;"/></g></svg>